/vscmnt/brussel_pixiu_data/_data_brussel/112/vsc11236/PredSimResults/SUBJ10mtu3D/weighted-trackIG/worker_04.mot
version=1
nRows=4
nColumns=50
inDegrees=yes
endheader
                time	         pelvis_tilt	         pelvis_list	     pelvis_rotation	           pelvis_tx	           pelvis_ty	           pelvis_tz	       hip_flexion_r	     hip_adduction_r	      hip_rotation_r	        knee_angle_r	       ankle_angle_r	         mtp_angle_r	       hip_flexion_l	     hip_adduction_l	      hip_rotation_l	        knee_angle_l	       ankle_angle_l	         mtp_angle_l	    lumbar_extension	      lumbar_bending	     lumbar_rotation	 ercspn_r/activation	 intobl_r/activation	 extobl_r/activation	    abd_r/activation	    add_r/activation	hamstrings_r/activation	bifemsh_r/activation	glut_max_r/activation	iliopsoas_r/activation	rect_fem_r/activation	  vasti_r/activation	gastroc_r/activation	 soleus_r/activation	tib_ant_r/activation	 ercspn_l/activation	 intobl_l/activation	 extobl_l/activation	    abd_l/activation	    add_l/activation	hamstrings_l/activation	bifemsh_l/activation	glut_max_l/activation	iliopsoas_l/activation	rect_fem_l/activation	  vasti_l/activation	gastroc_l/activation	 soleus_l/activation	tib_ant_l/activation	
          0.60184703	         -4.86663390	          3.14472401	        -10.61873051	          0.61990244	          0.82958502	          0.01618865	        -11.53870866	         -3.18417020	          6.62031747	         -8.12169647	         10.57818191	         23.79600753	         28.11965844	         -0.78583642	         -8.22409742	         -3.80576281	          6.66594579	          0.24980601	         -6.25126936	         -1.04262071	          3.69124807	          0.03365228	          0.00999999	          0.00999999	          0.04317493	          0.03824456	          0.02563415	          0.12022967	          0.03596066	          0.30954929	          0.00999999	          0.00999999	          0.25716347	          0.24520659	          0.01551299	          0.08530638	          0.16485714	          0.02078853	          0.01200615	          0.13022470	          0.02297439	          0.08114023	          0.00999999	          0.06605616	          0.01453354	          0.01200615	          0.00999999	          0.00999999	          0.26514105	
          0.61388397	         -4.93898960	          2.93450113	        -10.43993614	          0.63486944	          0.82786694	          0.01564881	        -11.63833539	         -2.96719500	          5.92683701	         -9.85566441	         10.15944462	         25.42016481	         28.16634786	         -0.61679761	         -7.19388515	         -5.39565237	          6.39033702	          0.24431360	         -6.02552913	         -1.41230419	          3.86340953	          0.07452655	          0.00999999	          0.00999999	          0.03596066	          0.08483695	          0.02135084	          0.10014001	          0.02995185	          0.32191101	          0.00999999	          0.00999999	          0.21678596	          0.23433120	          0.01292086	          0.07105220	          0.14230568	          0.01731489	          0.00999999	          0.18510368	          0.02507608	          0.07760529	          0.05184042	          0.05501857	          0.01210507	          0.00999999	          0.01866570	          0.01730661	          0.26943540	
          0.62592091	         -4.99534160	          2.73128375	        -10.19889321	          0.65015407	          0.82629702	          0.01505726	        -11.58900891	         -2.74410188	          5.18276005	        -11.92742763	          9.62952893	         27.02942652	         28.02798097	         -0.45270153	         -6.15303596	         -6.86968485	          6.09059495	          0.23862271	         -5.78050022	         -1.80991765	          4.01626770	          0.08981843	          0.00999999	          0.00999999	          0.02995185	          0.07821840	          0.01778325	          0.08340722	          0.02494708	          0.31163569	          0.00999999	          0.00999999	          0.18056233	          0.21907566	          0.01076187	          0.06975454	          0.11852726	          0.01442168	          0.04925296	          0.16359194	          0.04003667	          0.07969891	          0.06088913	          0.04582530	          0.01008238	          0.00999999	          0.01554678	          0.01441478	          0.30068515	
          0.63795785	         -5.03729855	          2.53245947	         -9.89667870	          0.66555547	          0.82503059	          0.01436406	        -11.32820967	         -2.51769258	          4.39273456	        -14.40225317	          8.93345926	         28.56792929	         27.74516244	         -0.26736854	         -5.18901551	         -8.10532923	          5.71897381	          0.22757487	         -5.53632006	         -2.22209406	          4.14682006	          0.11300765	          0.00999999	          0.00999999	          0.02494707	          0.08476996	          0.01859499	          0.06947037	          0.02077857	          0.29824684	          0.00999999	          0.00999999	          0.15039145	          0.19045552	          0.00999999	          0.07771490	          0.09872207	          0.01201190	          0.08907910	          0.16773575	          0.04031902	          0.06638170	          0.07790606	          0.03816817	          0.00999999	          0.00999999	          0.01294900	          0.01200616	          0.31751315	
